<?xml version="1.0" standalone="no"?>
<!DOCTYPE svg PUBLIC "-//W3C//DTD SVG 20010904//EN"
 "http://www.w3.org/TR/2001/REC-SVG-20010904/DTD/svg10.dtd">
<svg version="1.0" xmlns="http://www.w3.org/2000/svg"
 width="761.000000pt" height="761.000000pt" viewBox="0 0 761.000000 761.000000"
 preserveAspectRatio="xMidYMid meet">
<metadata>
Created by potrace 1.11, written by Peter Selinger 2001-2013
</metadata>
<g transform="translate(0.000000,761.000000) scale(0.100000,-0.100000)"
fill="#000000" stroke="none">
<path d="M3226 6874 c-21 -21 -20 -31 5 -44 17 -10 21 -8 26 9 3 12 9 21 13
21 4 0 10 7 14 15 8 21 -37 20 -58 -1z"/>
<path d="M2781 6810 c-1 -30 -8 -64 -16 -74 -8 -11 -12 -29 -9 -43 5 -17 2
-23 -10 -23 -8 0 -20 -10 -27 -21 -9 -18 -7 -27 11 -51 17 -23 19 -33 10 -41
-9 -9 -15 -8 -23 4 -9 14 -13 14 -38 2 -16 -8 -32 -25 -35 -39 -3 -13 -10 -24
-16 -24 -5 0 -6 6 -2 13 4 6 -16 -10 -44 -37 -31 -30 -52 -60 -54 -75 -2 -19
-9 -26 -25 -25 -18 0 -20 -3 -12 -24 11 -29 4 -41 -13 -24 -21 21 -28 13 -28
-27 0 -23 -6 -44 -16 -52 -13 -11 -14 -14 -2 -23 17 -13 39 -72 30 -80 -3 -4
-18 8 -34 26 -25 30 -30 32 -49 20 -19 -12 -25 -10 -58 15 -65 52 -135 91
-191 108 -137 41 -133 40 -138 27 -6 -19 -24 -14 -20 5 4 20 -52 53 -89 53
-12 0 -25 5 -28 10 -8 13 -65 13 -65 -1 0 -25 23 -58 89 -125 42 -43 9 -26
-53 28 -34 29 -72 63 -86 75 -40 36 -54 27 -24 -15 8 -12 25 -23 37 -23 20 -1
20 -2 2 -6 -33 -8 -37 -19 -20 -54 12 -23 14 -34 6 -37 -6 -2 -11 -8 -11 -14
0 -6 7 -8 14 -5 10 4 13 1 9 -9 -3 -7 -11 -14 -19 -14 -8 0 -14 -9 -14 -19 0
-11 -3 -27 -7 -37 -5 -13 -3 -16 10 -11 19 7 23 -13 6 -30 -12 -12 -3 -53 12
-53 5 0 9 -6 9 -14 0 -7 11 -25 25 -39 15 -14 22 -28 16 -31 -5 -4 -18 7 -27
24 -10 16 -24 30 -30 30 -7 0 -14 5 -16 11 -3 9 -9 9 -23 1 -17 -8 -19 -19
-17 -60 3 -42 7 -50 20 -45 10 4 20 11 24 17 5 8 11 7 20 -2 9 -9 9 -12 -5
-12 -9 0 -20 -7 -25 -16 -5 -9 -13 -16 -18 -15 -9 0 -9 -25 1 -97 4 -23 10
-40 15 -37 5 3 7 12 3 20 -3 8 0 15 6 15 6 0 11 -11 11 -24 0 -19 4 -23 20
-19 11 3 23 15 26 27 3 12 13 22 22 23 62 7 67 9 70 31 2 12 7 22 12 22 4 0 6
-9 3 -20 -3 -13 0 -20 9 -20 7 0 15 11 16 25 1 19 -3 25 -18 25 -13 0 -18 5
-14 15 4 10 20 15 52 15 l45 0 -21 -23 c-12 -13 -20 -26 -17 -29 3 -3 -6 -25
-20 -49 -16 -29 -25 -37 -25 -25 0 18 -2 18 -25 -4 -14 -13 -25 -31 -26 -39 0
-13 -2 -12 -8 2 -6 15 -12 10 -35 -32 -15 -28 -31 -51 -37 -51 -5 0 -9 -4 -9
-10 0 -5 9 -10 20 -10 17 0 19 -2 8 -14 -9 -9 -17 -11 -25 -4 -14 11 -20 -6
-28 -84 -4 -35 -2 -59 4 -63 6 -3 11 -13 11 -21 0 -8 -5 -12 -10 -9 -6 4 -8
11 -5 16 4 5 1 9 -4 9 -17 0 -13 -15 10 -44 13 -16 18 -33 14 -46 -3 -11 -2
-20 4 -20 5 0 13 -20 17 -45 3 -25 10 -48 15 -51 13 -7 11 -48 -2 -61 -12 -12
4 -53 21 -53 6 0 10 -16 10 -35 0 -19 5 -35 10 -35 6 0 10 -7 10 -15 0 -9 6
-12 15 -9 11 5 15 -1 15 -20 0 -29 -6 -31 -44 -16 -18 7 -26 17 -26 34 0 22
-26 84 -41 96 -13 10 -19 49 -9 55 20 12 10 21 -20 17 -16 -2 -30 0 -30 5 0
17 13 23 25 13 10 -8 12 -4 10 18 -1 16 -5 34 -9 40 -4 6 -7 32 -8 57 0 25 -5
45 -10 45 -10 0 -5 -100 6 -119 8 -12 -23 -43 -35 -36 -3 2 -6 -1 -7 -8 0 -7
-3 -25 -6 -42 -2 -16 -5 -34 -5 -39 -1 -4 -9 -6 -18 -4 -16 4 -18 -1 -15 -43
5 -57 41 -101 67 -79 10 8 15 9 15 1 0 -6 -4 -11 -10 -11 -17 0 -12 -136 5
-150 8 -7 12 -17 9 -22 -4 -5 -1 -21 6 -34 17 -30 66 -40 114 -23 19 7 38 10
41 7 3 -3 1 -24 -4 -47 -8 -39 -7 -43 15 -53 13 -6 26 -19 29 -30 5 -15 17
-18 78 -17 40 0 92 3 117 7 25 4 53 6 63 4 22 -4 22 -22 0 -22 -9 0 -30 -4
-47 -9 -17 -5 -58 -14 -90 -20 -56 -10 -106 -40 -106 -64 0 -5 14 -7 33 -3
l32 6 -25 -15 c-14 -8 -37 -12 -52 -9 -17 3 -28 1 -28 -5 0 -14 -52 -14 -83 0
-44 20 -87 -9 -126 -85 -37 -73 -38 -78 -26 -116 7 -23 6 -23 -23 8 -27 29
-72 46 -57 22 3 -5 -1 -10 -9 -10 -9 0 -16 -4 -16 -10 0 -5 -11 -10 -24 -10
-16 0 -26 -7 -29 -21 -5 -17 -11 -20 -32 -17 -14 3 -28 1 -31 -3 -3 -5 2 -9
12 -9 13 0 14 -3 4 -15 -7 -8 -23 -15 -36 -15 -13 0 -23 -3 -23 -7 5 -28 -3
-34 -36 -27 -25 4 -39 2 -50 -10 -21 -20 -36 -21 -29 -1 4 8 10 15 15 15 17 0
51 42 45 56 -3 8 1 14 8 14 8 0 34 16 58 35 58 48 60 49 80 74 23 27 69 27 93
1 18 -20 19 -20 35 12 31 63 55 97 77 109 71 38 -14 53 -277 50 -202 -3 -296
-11 -293 -27 1 -6 -13 -8 -33 -6 -19 2 -40 0 -47 -6 -6 -5 -37 -17 -68 -26
-31 -9 -69 -23 -85 -31 -16 -8 -36 -15 -44 -16 -10 0 -11 -2 -2 -6 6 -2 12
-13 12 -23 0 -10 6 -20 14 -23 17 -7 28 16 20 38 -7 17 7 20 23 4 7 -7 8 -22
1 -46 -6 -21 -6 -39 0 -46 5 -7 12 -22 15 -34 8 -34 -15 -29 -37 7 -9 17 -29
38 -43 47 -13 9 -29 27 -34 41 -6 16 -14 22 -25 18 -9 -3 -22 -6 -30 -6 -10 0
-5 -10 13 -28 15 -15 31 -24 34 -19 3 4 6 -19 6 -53 0 -33 -4 -63 -9 -66 -29
-18 -31 -114 -2 -114 8 0 14 -7 14 -16 0 -15 -2 -15 -25 0 -27 18 -49 21 -40
6 3 -5 -1 -10 -9 -10 -11 0 -16 -10 -16 -31 0 -17 -4 -28 -10 -24 -17 10 -90
-15 -103 -35 -6 -11 -17 -20 -24 -20 -7 0 -13 -9 -13 -20 0 -13 -5 -18 -15
-14 -8 4 -27 -6 -44 -23 -34 -33 -59 -51 -83 -59 -10 -4 -20 -15 -23 -25 -4
-10 -15 -19 -25 -19 -10 0 -22 -4 -25 -10 -10 -16 2 -12 101 31 79 35 98 39
121 31 24 -9 25 -11 6 -11 -12 -1 -25 -5 -28 -11 -3 -5 -13 -10 -22 -10 -9 0
-25 -8 -36 -17 -10 -10 -24 -18 -30 -18 -7 -1 -30 -10 -52 -20 -28 -13 -35
-20 -22 -23 27 -6 20 -18 -13 -20 -17 -1 -30 2 -30 8 0 16 -60 12 -66 -5 -4
-8 -12 -15 -20 -15 -8 0 -14 -5 -14 -11 0 -15 61 -3 72 14 5 9 8 7 8 -4 0 -20
44 -51 62 -44 25 10 87 12 100 3 10 -6 10 -8 1 -8 -23 0 -14 -18 13 -24 l25
-7 -22 -18 c-27 -22 -48 -9 -41 26 2 13 -1 23 -7 23 -12 0 -14 -7 -15 -70 -1
-34 -5 -45 -18 -48 -20 -4 -26 34 -7 40 7 2 8 15 2 38 -8 31 -12 34 -51 36
-23 1 -42 -2 -42 -6 0 -5 -8 -11 -17 -13 -15 -4 -16 -5 -2 -6 9 0 19 -11 22
-22 5 -17 11 -20 30 -15 28 7 45 -18 27 -39 -15 -18 -3 -23 53 -26 53 -3 76
-12 58 -24 -21 -12 9 -35 46 -35 30 0 34 2 23 15 -9 10 -9 15 -1 15 6 0 11 8
11 18 0 11 7 6 22 -16 20 -32 23 -33 67 -28 25 4 98 11 161 15 63 5 118 10
122 10 9 1 23 81 19 111 -1 14 4 50 13 80 8 30 18 72 21 93 7 41 25 41 25 0 0
-22 7 -16 39 38 28 48 50 71 87 92 27 16 42 26 33 24 -9 -3 -23 3 -33 14 -20
23 -21 36 -2 20 24 -20 49 -2 43 33 -3 17 -4 26 -1 21 2 -6 22 -9 44 -7 31 3
39 1 35 -10 -3 -8 2 -14 13 -15 15 -1 18 5 18 32 -1 19 -5 37 -9 41 -4 4 -7
16 -7 28 0 19 0 19 14 1 11 -16 14 -16 22 -3 13 21 64 33 64 14 0 -7 -12 -17
-27 -21 -16 -4 -22 -10 -15 -12 17 -6 15 -23 -3 -23 -8 0 -12 -6 -9 -14 3 -8
1 -17 -5 -21 -6 -3 -11 -15 -11 -27 0 -14 -5 -18 -15 -14 -8 3 -15 1 -15 -4 0
-6 -10 -6 -27 1 -20 7 -30 6 -40 -4 -11 -11 -8 -15 22 -27 40 -16 42 -21 16
-44 -13 -12 -21 -14 -26 -6 -5 8 -11 8 -21 -1 -11 -9 -18 -9 -26 -1 -7 7 -19
12 -27 12 -11 0 -10 -4 4 -20 10 -11 24 -20 32 -20 8 0 13 -11 13 -27 0 -34
-14 -58 -28 -49 -6 3 -12 -4 -14 -16 -2 -13 -19 -33 -41 -48 -35 -22 -37 -25
-21 -37 10 -7 12 -13 6 -13 -7 0 -12 -7 -12 -15 0 -9 -7 -18 -16 -22 -8 -3
-13 -11 -10 -18 5 -14 -22 -43 -39 -44 -5 0 -11 -7 -13 -15 -2 -11 4 -16 17
-16 24 0 29 -28 7 -36 -14 -5 -14 -27 -1 -71 5 -15 3 -23 -5 -23 -8 0 -10 -9
-6 -26 4 -14 3 -31 -2 -37 -10 -13 -21 -74 -27 -152 -3 -27 -9 -90 -15 -139
-6 -49 -8 -91 -5 -94 3 -3 26 17 50 45 25 29 55 53 68 55 12 2 26 13 32 26 5
12 15 22 23 22 10 0 9 -7 -1 -33 -14 -32 -13 -34 20 -67 41 -41 69 -95 78
-150 4 -22 11 -42 16 -46 5 -3 9 -14 9 -25 0 -11 6 -30 12 -42 7 -12 18 -51
26 -87 7 -36 15 -78 18 -93 4 -17 -2 -51 -14 -85 -24 -68 -34 -132 -21 -132 5
0 9 4 9 10 0 5 15 27 33 47 39 44 59 79 83 146 10 27 30 66 45 87 l28 39 -15
57 c-8 32 -17 87 -20 122 -2 36 -9 73 -15 84 -33 61 -53 194 -50 318 2 63 15
81 60 82 35 1 48 -11 57 -52 8 -36 58 -170 62 -166 1 2 -9 46 -23 97 -32 110
-32 207 -1 237 18 16 18 15 12 -45 -5 -45 -2 -80 13 -135 24 -90 37 -124 50
-133 13 -8 15 -65 2 -65 -5 0 -17 7 -25 16 -15 14 -16 14 -16 -4 0 -18 38 -52
58 -52 4 0 17 6 27 14 18 13 18 14 1 31 -13 14 -15 20 -5 29 8 8 13 8 16 -1 3
-7 12 -13 20 -13 9 0 13 -6 10 -14 -4 -9 0 -12 12 -9 11 3 21 -4 28 -19 9 -18
12 -19 12 -5 1 26 37 21 45 -5 3 -13 1 -25 -4 -26 -15 -5 -12 -21 11 -53 18
-25 27 -30 56 -27 31 3 37 8 51 42 14 36 14 45 -7 130 -12 50 -21 102 -20 116
1 16 3 19 6 8 5 -21 30 -13 60 19 20 23 63 158 63 201 0 32 -18 36 -23 5 -4
-26 -4 -25 -6 5 0 19 7 50 16 69 13 28 14 39 5 54 -13 21 -2 94 21 129 15 26
53 28 41 3 -4 -10 -8 -53 -10 -96 -1 -66 -5 -82 -25 -103 l-22 -24 21 0 c15 0
24 -8 28 -25 12 -48 67 -22 95 45 19 42 10 228 -10 216 -4 -3 -8 5 -8 17 -1
12 1 17 5 12 11 -16 70 -18 87 -3 43 34 55 50 50 58 -4 6 -2 10 3 10 5 0 12
14 16 31 6 32 27 59 46 59 6 0 25 13 43 30 18 16 36 30 40 30 4 0 7 6 5 13 -1
6 6 35 15 63 19 55 15 104 -9 104 -9 0 -13 14 -12 48 0 26 3 41 5 35 3 -7 19
-13 36 -13 24 0 40 9 64 35 18 19 37 35 43 35 5 0 10 7 10 16 0 10 6 14 15 10
10 -4 15 1 15 14 0 11 7 20 15 20 8 0 15 4 15 9 0 6 11 22 25 37 14 15 25 36
25 48 0 18 2 19 11 6 8 -12 9 -9 4 10 -4 14 -7 33 -6 43 0 10 -11 22 -24 27
-14 5 -44 19 -67 31 -24 12 -59 24 -78 28 -34 6 -35 8 -33 51 1 25 6 46 12 48
6 2 11 10 11 18 0 8 4 14 8 14 4 0 37 27 72 60 36 33 68 60 72 60 4 0 5 7 2
15 -4 8 1 17 10 21 9 3 16 17 16 30 0 13 3 24 8 24 4 0 15 14 24 30 9 17 24
30 33 30 17 0 19 8 6 29 -7 10 -4 19 7 28 26 19 37 15 17 -7 -11 -12 -13 -20
-6 -20 7 0 9 -4 6 -10 -8 -12 -7 -12 32 -1 25 7 31 6 27 -4 -4 -10 1 -12 15
-8 12 3 21 9 21 14 0 5 11 9 25 9 14 0 28 7 31 14 3 8 22 27 42 42 19 15 32
22 28 16 -11 -18 21 -27 40 -11 13 10 17 10 24 -1 6 -10 14 -11 37 -2 42 16
86 12 105 -11 19 -22 24 -57 8 -57 -5 0 -10 -7 -10 -15 0 -31 -43 -145 -56
-145 -7 0 -15 -18 -19 -40 -6 -34 -11 -40 -30 -40 -20 0 -26 -8 -35 -40 -10
-39 -47 -110 -61 -120 -4 -3 -11 -19 -15 -35 -4 -17 -22 -44 -40 -61 -18 -17
-40 -47 -48 -65 -9 -19 -19 -41 -24 -49 -26 -44 -53 -109 -58 -140 -4 -19 -11
-40 -15 -46 -5 -6 -13 -34 -20 -62 -6 -29 -14 -52 -19 -52 -4 0 -6 -9 -3 -20
3 -10 -2 -26 -11 -35 -9 -9 -19 -28 -22 -43 -4 -15 -16 -40 -26 -55 -11 -15
-17 -34 -14 -42 2 -8 -2 -15 -10 -17 -9 -2 -28 -27 -43 -55 -16 -29 -31 -50
-34 -47 -7 7 -56 -58 -60 -82 -7 -33 -19 -54 -31 -54 -28 0 -201 -272 -192
-302 3 -13 -2 -18 -15 -18 -15 0 -19 -7 -19 -35 0 -19 -9 -58 -19 -87 -11 -29
-23 -75 -27 -101 -3 -26 -12 -53 -18 -60 -6 -7 -11 -41 -12 -77 0 -38 -9 -91
-22 -129 -12 -35 -19 -68 -16 -73 3 -5 0 -23 -6 -39 -11 -26 -10 -32 4 -42 15
-11 15 -16 4 -38 -17 -33 -2 -209 19 -222 7 -4 13 -19 13 -32 0 -14 5 -25 10
-25 6 0 10 -18 10 -40 0 -38 2 -40 30 -40 26 0 30 -4 30 -26 0 -30 24 -53 56
-54 12 0 38 -18 60 -42 23 -25 39 -37 42 -29 2 7 18 -2 42 -26 53 -54 64 -61
100 -65 30 -3 35 -8 54 -62 15 -43 30 -65 53 -80 24 -15 31 -26 27 -41 -7 -29
48 -80 62 -58 6 10 8 -1 6 -33 -3 -48 -2 -48 12 -24 12 20 15 22 16 7 0 -10 7
-25 15 -34 14 -14 15 -13 9 13 -3 16 -26 92 -50 168 -56 174 -71 271 -84 516
-9 173 0 516 15 539 2 4 9 45 15 91 40 299 149 618 369 1073 39 81 71 149 71
151 0 8 149 263 194 331 76 117 159 225 167 219 5 -3 6 2 3 11 -5 12 -2 16 11
13 10 -2 20 4 22 12 4 13 3 13 -7 0 -10 -13 -11 -12 -6 3 3 10 6 20 6 23 0 2
7 1 15 -2 10 -4 15 0 15 13 0 11 10 29 23 41 28 27 47 29 23 3 -9 -10 -19 -28
-21 -41 -4 -19 -21 -47 -45 -70 -14 -14 -156 -231 -184 -281 -10 -19 -37 -65
-60 -104 -66 -110 -314 -619 -384 -785 -57 -137 -122 -313 -122 -331 0 -8 -4
-19 -8 -24 -5 -6 -14 -53 -21 -105 -7 -52 -19 -120 -27 -150 -24 -95 -29 -186
-28 -500 1 -288 3 -313 28 -443 15 -75 41 -177 58 -225 17 -48 33 -102 35
-120 3 -18 14 -39 24 -45 11 -7 19 -15 19 -18 0 -14 -33 -19 -46 -8 -9 8 -14
8 -14 1 0 -6 5 -14 10 -17 6 -4 7 -11 4 -17 -4 -6 1 -8 13 -4 15 5 25 0 37
-19 9 -14 22 -25 30 -25 7 0 21 -9 31 -20 22 -24 33 -25 72 -5 26 13 36 13 87
0 77 -20 76 -20 76 25 0 33 3 40 20 40 14 0 20 -7 20 -23 0 -23 27 -57 46 -57
5 0 15 -9 22 -20 7 -11 18 -20 25 -20 7 0 30 -9 52 -20 22 -11 44 -20 51 -20
6 0 38 -26 70 -57 77 -76 113 -100 160 -106 55 -7 209 -50 225 -63 20 -16 98
-50 139 -62 19 -6 51 -15 70 -21 19 -6 60 -11 90 -11 78 0 93 -3 125 -28 15
-12 32 -22 36 -22 5 0 9 -7 9 -15 0 -8 9 -15 20 -15 11 0 20 -4 20 -9 0 -4 27
-14 60 -20 33 -7 60 -15 60 -20 0 -4 12 -12 28 -18 25 -10 22 -11 -28 -12 -39
0 -69 7 -105 24 -27 13 -52 20 -55 16 -3 -5 -37 -12 -77 -16 -64 -6 -76 -4
-112 16 -34 19 -49 21 -105 16 -54 -5 -66 -4 -66 8 0 17 -27 20 -49 6 -9 -6
-30 -2 -60 11 -25 11 -62 22 -81 24 -19 2 -62 12 -95 22 -33 11 -80 23 -104
27 -24 4 -95 29 -158 56 -62 27 -118 49 -123 49 -6 0 -10 4 -10 8 0 5 -34 19
-75 31 -56 16 -80 19 -95 11 -14 -8 -38 -5 -91 9 -66 18 -99 19 -99 2 1 -24
160 -141 192 -141 8 0 23 -9 33 -20 10 -11 28 -20 40 -20 13 0 28 -7 35 -15 7
-8 23 -15 36 -15 15 0 24 6 24 15 0 20 12 19 41 -5 13 -11 29 -23 34 -28 6 -4
26 -14 45 -22 47 -18 62 -31 56 -47 -3 -7 0 -13 7 -13 7 0 29 -8 49 -18 20
-11 71 -25 115 -31 43 -7 92 -19 110 -27 42 -19 212 -58 403 -93 156 -29 614
-140 680 -165 19 -8 82 -26 140 -41 58 -14 137 -35 177 -46 241 -64 653 -66
876 -5 28 8 73 17 98 21 26 3 64 15 85 25 21 11 43 20 49 20 5 0 43 30 84 65
41 36 79 65 85 65 5 0 28 9 50 19 23 11 57 24 76 29 88 26 250 88 300 115 30
17 71 39 90 49 47 24 122 87 116 97 -7 11 50 52 74 54 11 1 17 3 15 5 -2 3 15
20 39 38 83 63 93 156 35 319 -47 130 -59 168 -63 202 -3 15 -11 42 -20 58
-10 19 -12 31 -5 33 6 3 6 8 0 15 -5 7 -19 41 -31 77 -12 36 -30 82 -41 102
-11 21 -19 39 -19 40 6 12 -33 148 -42 148 -4 0 -8 8 -8 18 1 35 49 -44 100
-163 34 -79 37 -87 56 -140 22 -63 19 -61 50 -40 17 11 38 15 58 12 44 -7 94
16 102 47 14 58 -14 153 -68 231 -18 26 -44 68 -58 94 -14 25 -35 61 -47 78
-13 17 -26 39 -31 49 -6 17 -34 61 -131 209 -14 22 -49 68 -78 103 -29 35 -53
67 -53 71 0 14 -76 50 -118 57 -56 9 -54 24 3 24 47 0 56 9 29 30 -15 14 -54
86 -54 103 0 5 -11 31 -25 59 -14 27 -25 56 -25 65 0 23 24 9 31 -18 11 -45
21 -69 29 -69 5 0 22 -22 39 -50 31 -50 44 -59 56 -40 3 6 19 10 34 10 16 0
45 7 65 15 34 15 36 17 36 65 0 30 -7 62 -19 82 -10 18 -51 89 -91 158 -57
100 -87 140 -151 203 -44 42 -86 77 -93 77 -7 0 -21 7 -32 15 -17 13 -15 13
16 2 19 -7 38 -16 42 -22 5 -6 8 -6 8 1 0 18 -100 66 -124 61 -12 -2 -30 -8
-41 -12 l-20 -8 20 16 c19 16 18 16 -30 17 -27 0 -67 -5 -88 -11 -54 -15 -59
-3 -13 36 l40 33 -35 6 c-172 30 -245 24 -351 -29 -38 -18 -68 -30 -68 -27 0
15 52 71 63 66 7 -2 42 2 78 11 158 37 369 2 510 -85 l52 -31 -7 28 c-20 81
-116 248 -185 323 -9 10 -27 30 -40 44 -13 15 -30 25 -37 22 -7 -3 -11 0 -8 7
7 19 -45 33 -98 27 -57 -7 -51 5 9 18 33 8 47 6 63 -5 12 -8 24 -13 27 -10 12
13 -54 41 -101 43 -60 3 -176 -33 -236 -72 -60 -40 -58 -23 2 31 102 92 194
108 306 51 29 -15 52 -24 52 -21 0 10 -25 50 -68 108 -24 32 -48 75 -55 95
-14 42 -99 115 -175 152 -26 12 -54 26 -64 31 -35 18 -139 39 -191 39 -31 0
-59 5 -62 10 -9 15 145 2 215 -17 65 -18 135 -52 201 -99 54 -38 61 -29 24 31
-13 22 -31 54 -39 72 -22 48 -172 189 -222 210 -46 19 -61 40 -21 30 21 -6 21
-5 4 8 -16 11 -21 11 -36 -3 -11 -11 -13 -20 -7 -24 7 -5 4 -8 -6 -8 -10 0
-18 5 -18 10 0 6 -9 10 -20 10 -37 0 -20 20 18 21 l37 1 -30 9 c-65 21 -148
-7 -289 -98 -37 -24 -71 -42 -74 -38 -14 14 120 126 186 155 l35 15 -27 32
c-14 17 -26 34 -26 38 0 6 -22 36 -62 84 -10 12 -7 13 16 7 32 -8 37 -12 120
-87 52 -47 71 -59 128 -73 37 -9 69 -16 72 -16 20 0 -108 159 -211 263 -25 24
-119 76 -178 98 -105 39 -238 46 -350 20 -122 -30 -339 -125 -441 -195 -21
-14 -44 -26 -51 -26 -7 0 -13 -4 -13 -9 0 -5 -7 -11 -15 -15 -37 -14 -9 16 53
57 180 118 336 185 522 222 63 13 102 23 86 24 -16 1 -26 4 -23 7 4 4 -1 20
-10 35 -27 46 -8 53 76 31 74 -20 136 -56 175 -103 21 -25 163 -105 172 -97 6
7 -91 163 -122 196 -17 17 -38 32 -46 32 -8 0 -27 13 -43 30 -33 34 -104 70
-139 70 -14 0 -28 5 -32 11 -5 8 -8 8 -14 0 -3 -7 -14 -9 -23 -5 -9 3 -14 10
-12 15 3 5 -6 11 -20 15 -37 9 -31 22 13 27 20 2 3 3 -38 1 -83 -2 -221 -43
-256 -75 -11 -11 -24 -19 -27 -19 -17 0 15 38 53 65 37 26 40 30 22 36 -11 4
-23 12 -27 18 -3 6 -15 11 -26 11 -24 0 -24 9 -1 26 25 19 50 17 110 -11 48
-22 57 -23 109 -14 31 6 74 9 95 7 21 -2 38 -1 38 3 0 4 -21 21 -47 37 -27 17
-56 40 -65 51 -10 11 -30 23 -45 26 -15 3 -41 12 -58 20 -111 50 -312 44 -550
-16 -116 -29 -532 -240 -628 -319 -7 -5 -43 -35 -82 -66 -38 -31 -71 -60 -73
-65 -2 -5 -10 -9 -18 -9 -15 0 86 97 151 145 22 17 42 33 45 36 13 16 128 83
265 154 83 43 158 84 167 90 16 10 78 89 78 98 0 2 -18 9 -40 16 -22 6 -40 16
-40 20 0 12 -98 75 -119 76 -9 1 -41 8 -71 14 -33 8 -101 12 -170 9 -95 -2
-122 -7 -157 -25 -23 -12 -72 -28 -108 -34 -44 -9 -61 -15 -53 -22 8 -5 -3 -6
-29 -3 -28 4 -43 2 -43 -4 0 -6 -5 -8 -11 -5 -6 4 -17 -2 -25 -14 -8 -12 -22
-21 -30 -21 -16 0 -81 -45 -100 -69 -15 -19 -48 -6 -40 15 5 13 1 14 -25 9
-24 -6 -30 -4 -24 5 6 10 -1 12 -28 7 -21 -3 -37 -2 -37 4 0 5 8 9 17 9 13 0
14 3 6 11 -9 9 -2 20 26 43 21 17 47 36 57 43 17 10 15 12 -16 13 -53 1 -118
34 -122 62 -2 18 -11 24 -38 29 -19 4 -29 7 -22 8 17 2 15 31 -3 31 -12 0 -15
13 -15 57 0 40 -5 62 -17 76 -15 15 -18 38 -18 117 0 57 -5 103 -12 111 -6 8
-13 32 -16 54 -3 22 -7 49 -10 60 -3 11 -6 40 -7 65 l-2 45 -8 -52 c-10 -69
-15 -81 -37 -86 -10 -2 -5 -3 11 -1 26 4 28 2 22 -24 -6 -26 -12 -64 -20 -141
-2 -19 -11 -40 -21 -47 -14 -11 -22 -10 -45 8 -17 12 -26 27 -23 35 3 8 0 13
-8 11 -15 -3 -36 78 -38 141 -1 32 -2 33 -19 18 -11 -10 -18 -32 -19 -57 -1
-23 -6 -47 -11 -53 -6 -7 -12 -21 -15 -32 -3 -11 -4 -2 -2 20 12 116 9 156
-14 162 -23 6 -32 24 -38 78 -2 22 -9 42 -14 43 -5 2 -9 10 -9 18 0 10 -7 13
-24 8 -18 -4 -32 2 -56 25 l-33 31 17 66 c10 41 14 79 10 98 l-7 31 -14 -32
c-7 -18 -17 -33 -22 -33 -6 0 -12 15 -14 33 -2 21 -4 14 -6 -23z m-801 -513
c0 -13 -6 -32 -14 -43 -13 -17 -14 -14 -4 24 12 47 18 54 18 19z m-156 -51
c-3 -14 -10 -26 -15 -26 -12 0 -7 43 6 52 14 10 17 3 9 -26z m129 -46 c4 -17
3 -19 -9 -9 -8 6 -14 18 -14 26 0 20 16 8 23 -17z m-155 -10 c11 -18 10 -19
-13 -8 -13 6 -22 15 -19 19 8 14 18 11 32 -11z m447 -20 c3 -5 1 -10 -4 -10
-6 0 -11 5 -11 10 0 6 2 10 4 10 3 0 8 -4 11 -10z m-270 -10 c3 -5 1 -10 -4
-10 -6 0 -11 5 -11 10 0 6 2 10 4 10 3 0 8 -4 11 -10z m-218 -22 c-3 -8 -6 -5
-6 6 -1 11 2 17 5 13 3 -3 4 -12 1 -19z m103 1 c0 -14 -16 -11 -29 5 -10 12
-8 13 8 9 12 -3 21 -9 21 -14z m650 -30 c0 -11 -4 -18 -10 -14 -5 3 -7 12 -3
20 7 21 13 19 13 -6z m-619 -11 c11 -21 11 -22 -4 -9 -10 7 -17 17 -17 22 0
15 9 10 21 -13z m181 -73 c17 -22 7 -27 -12 -7 -12 12 -25 22 -30 22 -6 0 -10
7 -10 17 0 14 3 14 23 -3 12 -10 25 -23 29 -29z m-113 -11 c-17 -21 -31 -17
-17 5 7 11 16 17 20 14 5 -2 4 -11 -3 -19z m-87 -26 c-9 -9 -15 -9 -24 0 -9 9
-7 12 12 12 19 0 21 -3 12 -12z m233 -8 c3 -5 1 -10 -4 -10 -6 0 -11 5 -11 10
0 6 2 10 4 10 3 0 8 -4 11 -10z m-298 -71 c11 -21 24 -34 33 -32 8 2 2 -7 -15
-21 -16 -14 -34 -26 -40 -26 -5 1 -2 7 8 14 22 17 15 56 -14 82 -10 9 -16 21
-13 26 8 12 17 2 41 -43z m323 31 c0 -5 -2 -10 -4 -10 -3 0 -8 5 -11 10 -3 6
-1 10 4 10 6 0 11 -4 11 -10z m-150 -4 c0 -3 -4 -8 -10 -11 -5 -3 -10 -1 -10
4 0 6 5 11 10 11 6 0 10 -2 10 -4z m205 -74 c-7 -7 -25 9 -37 31 -10 20 -9 20
15 -3 14 -14 24 -26 22 -28z m-428 -30 l1 -47 -8 40 c-7 34 -5 55 3 55 1 0 3
-21 4 -48z m225 33 c0 -5 -5 -11 -11 -13 -6 -2 -11 4 -11 13 0 9 5 15 11 13 6
-2 11 -8 11 -13z m1158 5 c-19 -13 -30 -13 -30 0 0 6 10 10 23 10 18 0 19 -2
7 -10z m111 -17 c1 -60 29 -84 71 -62 14 7 18 6 18 -6 0 -9 5 -13 10 -10 6 3
10 2 10 -3 0 -6 -23 -16 -50 -23 -28 -7 -56 -20 -63 -27 -10 -12 -8 -14 8 -9
23 7 39 -1 48 -25 7 -20 -18 -32 -42 -19 -17 10 -140 -1 -160 -13 -16 -10
-171 -14 -171 -5 0 5 5 9 10 9 6 0 10 6 10 14 0 9 -7 12 -20 9 -14 -4 -20 0
-20 11 0 12 7 16 22 14 16 -2 23 4 29 27 9 33 -6 51 -28 33 -10 -8 -13 -6 -13
6 0 9 4 16 9 16 5 0 16 3 25 6 10 4 16 1 16 -10 0 -12 7 -14 31 -9 28 5 31 4
25 -15 -8 -25 8 -37 46 -34 14 1 30 -2 33 -8 4 -6 11 -8 16 -4 13 8 -9 34 -38
45 -25 9 -31 29 -9 29 8 0 21 9 29 20 16 23 29 14 42 -28 5 -19 13 -23 38 -20
40 4 45 22 13 51 -43 40 -32 63 32 66 18 1 22 -4 23 -26z m-1531 13 c0 -3 -4
-8 -10 -11 -5 -3 -10 -1 -10 4 0 6 5 11 10 11 6 0 10 -2 10 -4z m1610 -6 c0
-5 -4 -10 -10 -10 -5 0 -10 5 -10 10 0 6 5 10 10 10 6 0 10 -4 10 -10z m-20
-52 c0 -19 -2 -20 -10 -8 -13 19 -13 30 0 30 6 0 10 -10 10 -22z m-1074 -40
c14 -28 15 -31 2 -20 -14 11 -31 52 -22 52 2 0 11 -15 20 -32z m-321 -25 c-10
-28 -15 -94 -6 -89 4 3 18 -9 31 -27 l24 -32 -30 24 -29 23 -3 -33 c-2 -19 2
-50 8 -70 7 -20 10 -44 8 -55 -3 -13 -9 -3 -21 31 -21 62 -22 190 -1 223 17
26 29 29 19 5z m105 7 c0 -5 -4 -10 -10 -10 -5 0 -10 5 -10 10 0 6 5 10 10 10
6 0 10 -4 10 -10z m913 -4 c12 -9 14 -16 8 -21 -17 -10 -51 4 -51 21 0 18 19
18 43 0z m-953 -10 c0 -3 -4 -8 -10 -11 -5 -3 -10 -1 -10 4 0 6 5 11 10 11 6
0 10 -2 10 -4z m-170 -66 c0 -5 -4 -10 -10 -10 -5 0 -10 5 -10 10 0 6 5 10 10
10 6 0 10 -4 10 -10z m225 0 c3 -5 1 -10 -4 -10 -6 0 -11 5 -11 10 0 6 2 10 4
10 3 0 8 -4 11 -10z m1245 -30 c12 -8 10 -10 -10 -12 -46 -3 -55 -4 -77 -11
-60 -18 -63 -18 -63 -3 0 8 8 20 18 25 22 13 112 14 132 1z m-333 -32 c-3 -8
-6 -5 -6 6 -1 11 2 17 5 13 3 -3 4 -12 1 -19z m-79 2 c24 0 27 -24 4 -26 -7
-1 -16 -2 -21 -3 -5 0 -16 -8 -24 -15 -22 -23 -48 1 -36 33 7 18 14 22 32 17
12 -3 33 -6 45 -6z m1472 -20 c0 -5 -8 -10 -17 -10 -15 0 -16 2 -3 10 19 12
20 12 20 0z m-2350 -10 c0 -5 -2 -10 -4 -10 -3 0 -8 5 -11 10 -3 6 -1 10 4 10
6 0 11 -4 11 -10z m927 -10 c-6 -24 20 -28 29 -5 4 8 11 15 17 15 5 0 2 -9 -8
-20 -10 -11 -13 -20 -7 -20 7 0 12 -7 12 -16 0 -13 -5 -12 -30 6 -16 12 -40
20 -52 18 -11 -2 -23 3 -26 11 -3 9 1 11 17 6 14 -4 23 -1 27 9 9 23 27 20 21
-4z m479 -12 c-17 -25 -33 -35 -119 -82 -70 -39 -94 -40 -127 -8 -14 14 -13
15 5 8 42 -18 63 -18 82 1 11 10 40 29 65 41 26 13 56 35 69 48 26 28 46 22
25 -8z m-1596 2 c0 -5 -5 -10 -11 -10 -5 0 -7 5 -4 10 3 6 8 10 11 10 2 0 4
-4 4 -10z m1472 -8 c4 -14 -1 -18 -21 -17 -16 0 -27 6 -29 18 -5 24 44 24 50
-1z m1835 -8 c-3 -3 -12 -4 -19 -1 -8 3 -5 6 6 6 11 1 17 -2 13 -5z m-42 -14
c3 -5 1 -10 -4 -10 -6 0 -11 5 -11 10 0 6 2 10 4 10 3 0 8 -4 11 -10z m-2222
-7 c4 -3 -6 -13 -21 -21 -30 -15 -114 -43 -119 -38 -9 9 48 47 82 55 53 12 51
12 58 4z m2287 3 c0 -3 -4 -8 -10 -11 -5 -3 -10 -1 -10 4 0 6 5 11 10 11 6 0
10 -2 10 -4z m197 -22 c-3 -3 -12 -4 -19 -1 -8 3 -5 6 6 6 11 1 17 -2 13 -5z
m-753 -46 c12 -9 29 -17 39 -18 9 0 17 -6 17 -14 0 -8 6 -16 13 -19 6 -2 9 -7
6 -11 -4 -4 -17 -3 -30 3 -13 5 -45 17 -71 26 -33 11 -48 22 -48 34 0 21 43
45 49 28 2 -6 14 -19 25 -29z m-284 28 c0 -2 -7 -7 -16 -10 -8 -3 -12 -2 -9 4
6 10 25 14 25 6z m-1175 -43 c44 -8 83 -19 86 -25 7 -11 59 0 59 13 0 15 49
-13 65 -38 9 -14 25 -23 40 -23 20 0 25 -5 25 -24 0 -36 -21 -86 -36 -86 -7 0
-18 -9 -24 -20 -8 -15 -17 -19 -35 -14 -16 4 -25 2 -25 -6 0 -6 -5 -8 -10 -5
-6 4 -17 1 -25 -5 -14 -12 -17 -10 -19 17 -1 6 -10 20 -22 30 -13 12 -20 30
-20 53 1 32 -1 35 -37 41 -55 9 -91 -21 -84 -68 3 -18 2 -33 -4 -33 -5 0 -9
10 -10 23 0 21 -1 21 -9 2 -5 -11 -9 -32 -9 -47 -1 -21 -6 -28 -21 -28 -11 0
-20 4 -20 9 0 5 -9 13 -20 16 -25 8 -47 41 -52 75 -2 19 1 24 14 22 10 -1 53
11 95 28 43 18 87 35 98 39 13 5 1 10 -43 14 -34 4 -78 14 -99 22 -20 8 -46
13 -57 9 -21 -6 -21 -6 -1 9 38 28 54 28 200 0z m-278 -35 c-38 -8 -48 -1 -24
16 9 7 17 19 17 26 0 7 9 2 19 -11 l19 -24 -31 -7z m-106 -4 c21 -22 21 -24 4
-18 -20 8 -35 23 -35 37 0 12 5 9 31 -19z m-771 -9 c0 -8 -4 -15 -10 -15 -5 0
-7 7 -4 15 4 8 8 15 10 15 2 0 4 -7 4 -15z m880 -9 c0 -3 -4 -8 -10 -11 -5 -3
-10 -1 -10 4 0 6 5 11 10 11 6 0 10 -2 10 -4z m-849 -53 c15 -41 6 -48 -12 -9
-9 20 -12 36 -8 36 5 0 14 -12 20 -27z m2989 -11 c0 -15 -38 -44 -51 -40 -8 3
-4 12 11 26 25 23 40 28 40 14z m-2113 -107 c-6 -16 -39 -18 -48 -3 -5 7 -9
21 -9 31 0 17 1 17 30 0 17 -9 29 -22 27 -28z m-348 32 c-2 -1 -14 -11 -26
-21 -23 -19 -23 -19 -23 2 0 17 6 22 27 22 14 0 24 -1 22 -3z m2311 -13 c0 -8
-4 -12 -10 -9 -5 3 -10 10 -10 16 0 5 5 9 10 9 6 0 10 -7 10 -16z m-2157 0 c9
-9 -9 -40 -26 -47 -8 -3 -20 -1 -28 3 -11 7 -9 13 10 29 25 22 34 25 44 15z
m472 -13 c-8 -13 -97 -62 -103 -57 -10 10 8 36 25 36 10 1 29 7 43 15 29 17
44 19 35 6z m675 -46 c-13 -14 -27 -25 -31 -25 -3 0 5 13 20 29 14 16 28 27
30 25 3 -2 -6 -15 -19 -29z m-2010 15 c0 -5 -2 -10 -4 -10 -3 0 -8 5 -11 10
-3 6 -1 10 4 10 6 0 11 -4 11 -10z m1140 0 c0 -5 -2 -10 -4 -10 -3 0 -8 5 -11
10 -3 6 -1 10 4 10 6 0 11 -4 11 -10z m317 -32 c-3 -8 -6 -5 -6 6 -1 11 2 17
5 13 3 -3 4 -12 1 -19z m-350 -20 c-3 -8 -6 -5 -6 6 -1 11 2 17 5 13 3 -3 4
-12 1 -19z m63 12 c0 -5 -7 -10 -16 -10 -8 0 -12 5 -9 10 3 6 10 10 16 10 5 0
9 -4 9 -10z m-89 -15 c-1 -15 -24 -12 -29 3 -3 9 2 13 12 10 10 -1 17 -7 17
-13z m-241 -14 c7 -14 7 -22 -1 -27 -12 -7 -29 12 -29 34 0 19 18 14 30 -7z
m225 -21 c3 -5 0 -10 -9 -10 -8 0 -23 -3 -33 -7 -16 -6 -16 -5 -4 10 15 19 37
22 46 7z m875 7 c0 -2 -10 -12 -22 -23 l-23 -19 19 23 c18 21 26 27 26 19z
m-2006 -52 c3 -9 0 -15 -9 -15 -8 0 -15 7 -15 15 0 8 4 15 9 15 5 0 11 -7 15
-15z m3257 1 c-13 -16 -91 -59 -91 -51 0 5 91 64 99 65 2 0 -2 -6 -8 -14z
m-2471 -66 c0 -5 -5 -10 -11 -10 -5 0 -7 5 -4 10 3 6 8 10 11 10 2 0 4 -4 4
-10z m115 0 c3 -5 1 -10 -4 -10 -6 0 -11 5 -11 10 0 6 2 10 4 10 3 0 8 -4 11
-10z m-185 -42 c0 -16 -9 -41 -20 -55 l-19 -25 -7 27 c-4 17 0 38 12 60 21 39
34 37 34 -7z m230 28 c0 -3 -4 -8 -10 -11 -5 -3 -10 -1 -10 4 0 6 5 11 10 11
6 0 10 -2 10 -4z m-770 -22 c0 -14 -3 -14 -15 -4 -8 7 -15 14 -15 16 0 2 7 4
15 4 8 0 15 -7 15 -16z m645 -53 c3 -5 1 -12 -4 -15 -5 -3 -11 1 -15 9 -6 16
9 21 19 6z m-267 -109 c3 -9 -2 -13 -14 -10 -9 1 -19 9 -22 16 -3 9 2 13 14
10 9 -1 19 -9 22 -16z m189 -89 c-3 -10 -5 -4 -5 12 0 17 2 24 5 18 2 -7 2
-21 0 -30z m-151 -24 c11 -10 24 -16 27 -12 4 3 7 -1 7 -10 0 -26 20 -20 21 6
1 19 2 17 11 -8 12 -36 16 -155 6 -155 -5 0 -8 7 -8 16 0 13 -7 11 -34 -10
-41 -31 -59 -35 -28 -6 27 25 54 75 45 84 -4 3 -1 6 5 6 6 0 -2 14 -18 30 -16
17 -34 30 -40 30 -6 0 -8 4 -5 10 3 5 -5 12 -19 16 -14 3 -31 13 -38 22 -11
13 -9 14 17 8 17 -4 39 -16 51 -27z m3488 13 c-10 -9 -31 -25 -46 -35 -15 -9
-35 -32 -44 -50 -10 -17 -19 -27 -21 -20 -7 21 16 52 65 88 49 36 80 48 46 17z
m-3874 -22 c0 -5 -2 -10 -4 -10 -3 0 -8 5 -11 10 -3 6 -1 10 4 10 6 0 11 -4
11 -10z m288 -48 c3 -9 -2 -13 -14 -10 -9 1 -19 9 -22 16 -3 9 2 13 14 10 9
-1 19 -9 22 -16z m3380 -30 c-20 -20 -47 -49 -61 -64 -13 -16 -27 -28 -31 -28
-4 0 21 32 55 70 34 39 64 68 67 65 3 -3 -10 -22 -30 -43z m-48 34 c0 -3 -4
-8 -10 -11 -5 -3 -10 -1 -10 4 0 6 5 11 10 11 6 0 10 -2 10 -4z m-3070 -47
c14 -26 12 -41 -10 -69 l-19 -25 -11 29 c-14 37 -3 97 16 89 8 -3 19 -14 24
-24z m-388 -4 c-5 -30 -42 -43 -75 -27 -12 6 -16 11 -9 11 6 1 12 8 12 16 0
18 12 19 29 3 10 -11 14 -10 22 5 15 25 27 21 21 -8z m168 -25 c0 -5 -5 -10
-11 -10 -5 0 -7 5 -4 10 3 6 8 10 11 10 2 0 4 -4 4 -10z m3547 4 c-3 -3 -12
-4 -19 -1 -8 3 -5 6 6 6 11 1 17 -2 13 -5z m-3684 -38 c3 -8 -1 -17 -10 -20
-20 -8 -27 -1 -20 19 8 19 23 20 30 1z m2181 -168 c-43 -84 -81 -154 -86 -156
-4 -2 -8 -8 -8 -14 0 -6 -27 -67 -59 -137 -166 -355 -241 -551 -331 -876 -66
-235 -76 -294 -86 -540 -2 -66 -7 -136 -10 -155 -2 -19 -7 -178 -11 -352 -5
-313 5 -505 29 -535 16 -19 -1 -36 -18 -18 -30 29 -46 244 -41 545 8 431 34
845 56 890 5 8 18 60 31 115 34 154 116 425 174 579 75 197 250 570 283 605 8
7 23 32 35 55 11 22 25 44 31 47 5 4 7 11 3 17 -3 5 0 15 8 21 11 9 15 9 20
-1 3 -7 4 -3 2 10 -2 12 -1 20 4 17 4 -2 16 11 26 31 12 22 20 29 22 20 2 -8
-32 -84 -74 -168z m-2407 164 c9 -5 4 -16 -18 -36 -36 -35 -47 -28 -23 13 20
33 23 35 41 23z m-792 -12 c3 -5 2 -21 -1 -37 -7 -25 -8 -25 -15 -8 -11 28
-11 55 0 55 6 0 12 -4 16 -10z m890 -24 c0 -21 42 -46 64 -39 11 4 10 0 -4
-14 -13 -14 -39 -23 -78 -27 l-58 -6 16 23 c8 14 13 31 10 39 -7 18 22 51 39
45 6 -2 11 -12 11 -21z m3697 -27 c-29 -29 -55 -49 -58 -47 -7 8 85 98 100 98
6 0 -13 -23 -42 -51z m-3511 28 c-1 -12 -15 -9 -19 4 -3 6 1 10 8 8 6 -3 11
-8 11 -12z m3315 -23 c-22 -21 -31 -12 -16 16 8 15 15 19 22 12 8 -8 6 -16 -6
-28z m-3225 16 c27 -15 24 -30 -6 -28 -17 2 -25 8 -25 20 0 21 4 22 31 8z
m-1293 -18 c6 -18 -15 -14 -22 4 -4 10 -1 14 6 12 6 -2 14 -10 16 -16z m1482
-23 c0 -6 -4 -7 -10 -4 -5 3 -10 11 -10 16 0 6 5 7 10 4 6 -3 10 -11 10 -16z
m-1476 -30 c-8 -13 -24 -1 -24 18 0 13 3 13 15 3 8 -7 12 -16 9 -21z m1131 11
c3 -5 -1 -10 -9 -10 -9 0 -16 5 -16 10 0 6 4 10 9 10 6 0 13 -4 16 -10z m405
-5 c0 -8 -7 -15 -15 -15 -26 0 -18 20 13 29 1 1 2 -6 2 -14z m-70 -20 c0 -20
-5 -25 -25 -25 -28 0 -29 3 -15 31 15 28 40 24 40 -6z m17 3 c-3 -8 -6 -5 -6
6 -1 11 2 17 5 13 3 -3 4 -12 1 -19z m80 -25 c-3 -10 -5 -4 -5 12 0 17 2 24 5
18 2 -7 2 -21 0 -30z m-51 -10 c-10 -10 -19 5 -10 18 6 11 8 11 12 0 2 -7 1
-15 -2 -18z m29 17 c3 -5 1 -10 -4 -10 -6 0 -11 5 -11 10 0 6 2 10 4 10 3 0 8
-4 11 -10z m3080 -19 c-3 -6 -11 -11 -17 -11 -6 0 -6 6 2 15 14 17 26 13 15
-4z m-3358 -23 c-3 -8 -6 -5 -6 6 -1 11 2 17 5 13 3 -3 4 -12 1 -19z m3326
-13 c-3 -9 -8 -14 -10 -11 -3 3 -2 9 2 15 9 16 15 13 8 -4z m-4523 1 c0 -3 -4
-8 -10 -11 -5 -3 -10 -1 -10 4 0 6 5 11 10 11 6 0 10 -2 10 -4z m1337 -45 c0
-24 0 -24 -13 -6 -12 17 -14 17 -14 2 0 -20 -7 -21 -24 -4 -19 19 -8 36 23 34
23 -2 28 -7 28 -26z m-1542 0 c-3 -6 -11 -8 -17 -5 -6 4 -5 9 3 15 16 10 23 4
14 -10z m4605 -21 c-26 -37 -51 -53 -29 -20 8 14 19 31 23 38 4 6 12 12 17 12
6 0 1 -13 -11 -30z m-3109 -11 c13 -13 17 -25 11 -32 -10 -14 -9 -66 1 -117 4
-19 4 -29 1 -22 -3 6 -12 12 -19 12 -26 0 -37 39 -32 108 7 87 5 84 38 51z
m-124 -6 c2 -6 -5 -19 -15 -30 -11 -10 -22 -27 -25 -38 -4 -19 -5 -19 -6 1 0
11 8 29 19 39 16 15 18 21 7 33 -10 12 -9 14 2 11 8 -3 16 -10 18 -16z m-154
-45 c8 -4 5 -14 -8 -28 -17 -19 -18 -26 -7 -66 17 -65 4 -74 -29 -20 -36 57
-36 85 -1 125 23 27 28 29 31 14 2 -10 8 -21 14 -25z m187 2 c0 -5 -5 -10 -11
-10 -5 0 -7 5 -4 10 3 6 8 10 11 10 2 0 4 -4 4 -10z m-1380 -34 c0 -11 -19
-15 -25 -6 -3 5 1 10 9 10 9 0 16 -2 16 -4z m360 0 c0 -3 -4 -8 -10 -11 -5 -3
-10 -1 -10 4 0 6 5 11 10 11 6 0 10 -2 10 -4z m929 -32 c8 -18 6 -28 -9 -46
-17 -20 -21 -21 -30 -8 -5 8 -8 21 -5 28 3 8 5 22 5 31 0 25 26 22 39 -5z
m-204 -65 c0 -17 -6 -25 -22 -27 -17 -3 -23 2 -23 15 0 22 20 45 35 40 5 -2
10 -15 10 -28z m-812 -9 c-3 -11 -7 -20 -9 -20 -2 0 -4 9 -4 20 0 11 4 20 9
20 5 0 7 -9 4 -20z m1187 -8 c0 -15 -2 -15 -10 -2 -13 20 -13 33 0 25 6 -3 10
-14 10 -23z m-1245 -3 c-10 -15 -25 -10 -19 6 4 8 10 12 15 9 5 -3 7 -10 4
-15z m5225 11 c0 -5 -4 -10 -10 -10 -5 0 -10 5 -10 10 0 6 5 10 10 10 6 0 10
-4 10 -10z m-23 -26 c-3 -3 -12 -4 -19 -1 -8 3 -5 6 6 6 11 1 17 -2 13 -5z
m-5297 -34 c-11 -11 -26 -20 -32 -20 -7 0 -2 9 12 20 33 26 46 26 20 0z m115
0 c3 -5 1 -10 -4 -10 -6 0 -11 5 -11 10 0 6 2 10 4 10 3 0 8 -4 11 -10z m-185
-20 c-19 -13 -30 -13 -30 0 0 6 10 10 23 10 18 0 19 -2 7 -10z m-110 -20 c0
-5 -10 -10 -22 -10 -19 0 -20 2 -8 10 19 13 30 13 30 0z m-60 -9 c0 -10 -30
-24 -37 -17 -3 3 -2 9 2 15 8 13 35 15 35 2z m-55 -21 c-3 -5 -16 -10 -27 -10
-12 0 -29 -7 -39 -16 -22 -20 -46 -9 -28 12 7 8 17 13 23 11 6 -2 20 -1 31 4
29 11 47 11 40 -1z m5405 -28 c-17 -21 -39 -61 -50 -88 -12 -31 -19 -41 -20
-27 0 36 19 76 58 116 46 48 51 47 12 -1z m-5180 -12 c0 -5 -4 -10 -10 -10 -5
0 -10 5 -10 10 0 6 5 10 10 10 6 0 10 -4 10 -10z m5093 -15 c-3 -9 -8 -14 -10
-11 -3 3 -2 9 2 15 9 16 15 13 8 -4z m-4803 -19 c0 -3 -4 -8 -10 -11 -5 -3
-10 -1 -10 4 0 6 5 11 10 11 6 0 10 -2 10 -4z m-470 -27 c0 -16 -5 -20 -20
-16 -11 3 -23 1 -26 -4 -3 -5 0 -9 7 -9 18 0 4 -11 -18 -14 -11 -2 -18 -11
-17 -25 0 -11 -4 -21 -9 -21 -5 0 -7 16 -5 35 2 19 -1 37 -7 39 -18 8 19 26
42 21 12 -3 25 -1 28 5 11 17 25 11 25 -11z m119 -19 c-13 -17 -25 -27 -27
-21 -3 10 39 63 46 57 2 -3 -7 -19 -19 -36z m5133 18 c-7 -7 -12 -8 -12 -2 0
14 12 26 19 19 2 -3 -1 -11 -7 -17z m-5398 -6 c-6 -4 -17 -22 -25 -39 -8 -18
-19 -33 -26 -33 -6 0 -13 -4 -15 -9 -4 -12 -58 -2 -58 10 0 5 11 7 24 3 24 -6
66 20 66 40 0 14 32 47 39 41 3 -4 1 -9 -5 -13z m4451 -20 c-22 -15 -263 -524
-310 -654 -66 -180 -112 -347 -150 -543 -7 -38 -17 -83 -21 -100 -19 -77 4
-215 39 -237 6 -4 8 -10 5 -13 -13 -13 -55 30 -77 76 -24 54 -27 124 -7 171
13 31 34 122 41 178 2 14 8 50 15 80 15 70 18 88 19 125 1 23 4 27 11 15 7
-11 10 -1 10 34 0 34 5 53 18 63 9 8 11 11 3 7 -11 -5 -13 -3 -8 10 4 10 7 22
7 27 0 6 5 7 12 3 7 -4 8 -3 4 4 -9 15 35 157 74 240 17 35 30 65 30 68 0 12
83 179 91 182 5 2 9 10 9 18 0 8 4 14 8 14 5 0 19 23 32 50 13 28 26 50 29 50
3 0 14 17 24 38 10 21 32 52 48 70 16 17 29 37 29 43 0 10 3 10 12 1 9 -9 9
-15 3 -20z m-3333 -22 c-6 -11 -12 -29 -12 -40 0 -11 -6 -20 -14 -20 -17 0
-28 -65 -20 -110 7 -35 -11 -80 -33 -80 -7 0 -13 5 -13 10 0 6 -6 10 -13 10
-16 0 -47 36 -47 55 0 8 -6 12 -14 9 -21 -8 -39 31 -26 56 6 11 15 20 20 20 5
0 16 7 24 16 15 14 16 13 16 -10 0 -16 6 -26 15 -26 12 0 13 5 4 26 -7 21 -6
30 6 43 8 9 24 28 35 43 33 44 100 42 72 -2z m-1267 5 c-30 -25 -70 -36 -48
-14 14 14 55 37 68 38 6 0 -3 -11 -20 -24z m1522 -7 c-3 -8 -6 -5 -6 6 -1 11
2 17 5 13 3 -3 4 -12 1 -19z m-1257 -38 c0 -11 -4 -20 -9 -20 -11 0 -22 26
-14 34 12 12 23 5 23 -14z m113 -17 c-9 -7 -22 -13 -27 -13 -8 0 -8 3 0 8 6 4
14 16 18 27 6 16 9 17 16 5 7 -11 5 -19 -7 -27z m1017 -69 c-25 -69 -29 -169
-6 -212 8 -16 29 -41 46 -55 16 -14 30 -30 30 -36 0 -15 -33 -14 -48 1 -10 10
-15 10 -23 -2 -9 -12 -10 -12 -5 3 3 10 0 28 -8 40 -17 26 -29 124 -28 224 0
59 5 78 24 103 21 29 23 30 31 12 6 -14 2 -38 -13 -78z m-1205 76 c-3 -5 -11
-10 -16 -10 -6 0 -7 5 -4 10 3 6 11 10 16 10 6 0 7 -4 4 -10z m-55 -25 c0 -8
-4 -15 -10 -15 -5 0 -10 7 -10 15 0 8 5 15 10 15 6 0 10 -7 10 -15z m200 5 c0
-5 -4 -10 -10 -10 -5 0 -10 5 -10 10 0 6 5 10 10 10 6 0 10 -4 10 -10z m-30
-15 c0 -5 -64 -35 -120 -55 -19 -8 -43 -20 -53 -28 -13 -11 -21 -12 -28 -5
-17 17 -1 33 30 33 16 0 34 7 41 15 7 8 25 15 40 15 15 0 33 7 40 15 11 14 50
22 50 10z m-380 -15 c0 -5 -4 -10 -10 -10 -5 0 -10 5 -10 10 0 6 5 10 10 10 6
0 10 -4 10 -10z m180 6 c0 -3 -4 -8 -10 -11 -5 -3 -10 -1 -10 4 0 6 5 11 10
11 6 0 10 -2 10 -4z m-45 -66 c4 -6 -7 -10 -24 -10 -17 0 -31 5 -31 10 0 6 11
10 24 10 14 0 28 -4 31 -10z m165 -22 c0 -16 -3 -19 -11 -11 -6 6 -8 16 -5 22
11 17 16 13 16 -11z m5422 -10 c-7 -7 -12 -8 -12 -2 0 14 12 26 19 19 2 -3 -1
-11 -7 -17z m-4572 3 c0 -6 -4 -13 -10 -16 -5 -3 -10 1 -10 9 0 9 5 16 10 16
6 0 10 -4 10 -9z m4481 -39 c-22 -43 -50 -71 -37 -36 9 25 50 84 54 79 2 -2
-6 -21 -17 -43z m61 -27 c-9 -19 -17 -33 -19 -31 -6 5 19 66 27 66 4 0 0 -16
-8 -35z m358 19 c0 -3 -21 -35 -47 -72 -26 -37 -56 -81 -67 -98 -44 -66 -46
-68 -25 -24 20 41 56 98 70 110 3 3 16 24 29 48 21 36 40 54 40 36z m-4683
-26 c-3 -8 -6 -5 -6 6 -1 11 2 17 5 13 3 -3 4 -12 1 -19z m-84 -18 c3 -11 1
-20 -4 -20 -5 0 -9 9 -9 20 0 11 2 20 4 20 2 0 6 -9 9 -20z m124 -17 c-3 -10
-5 -4 -5 12 0 17 2 24 5 18 2 -7 2 -21 0 -30z m-310 -55 c-3 -8 -6 -5 -6 6 -1
11 2 17 5 13 3 -3 4 -12 1 -19z m301 -18 c-5 -17 -14 -30 -19 -30 -5 0 -9 -11
-9 -24 0 -32 -10 -57 -21 -51 -7 5 7 57 33 117 16 36 30 26 16 -12z m4512 6
c0 -8 -7 -16 -15 -20 -12 -4 -13 -2 -2 14 14 24 17 25 17 6z m-4638 -65 c2
-28 0 -37 -9 -34 -15 6 -18 73 -4 73 5 0 11 -17 13 -39z m68 -96 c0 -8 7 -15
16 -15 12 0 15 -6 10 -22 -3 -13 -6 -33 -6 -46 0 -33 -17 -18 -23 20 -3 18 -8
43 -12 56 -5 14 -3 22 4 22 6 0 11 -7 11 -15z m-48 -37 c-9 -9 -12 -7 -12 12
0 19 3 21 12 12 9 -9 9 -15 0 -24z m-512 -2 c0 -3 -4 -8 -10 -11 -5 -3 -10 -1
-10 4 0 6 5 11 10 11 6 0 10 -2 10 -4z m4533 -28 c-3 -13 -9 -27 -14 -33 -9
-12 -95 -182 -144 -284 -19 -41 -35 -83 -35 -93 0 -11 -4 -16 -10 -13 -6 3 -7
-1 -4 -9 3 -9 2 -16 -4 -16 -5 0 -12 -12 -15 -27 -2 -16 -17 -66 -32 -113 -68
-215 -78 -261 -64 -315 6 -27 19 -61 28 -74 15 -23 14 -23 -4 -13 -52 27 -60
49 -58 147 2 73 11 119 38 210 20 64 32 121 29 127 -4 6 -3 8 3 5 6 -4 19 20
31 56 51 155 131 309 217 417 22 27 40 50 41 50 1 0 0 -10 -3 -22z m-3393 -13
c0 -8 -4 -15 -10 -15 -5 0 -10 7 -10 15 0 8 5 15 10 15 6 0 10 -7 10 -15z
m4395 -354 c8 -13 -23 -41 -45 -41 -10 0 -22 5 -25 10 -3 6 1 10 10 10 11 0
15 5 11 15 -4 11 1 15 19 15 13 0 26 -4 30 -9z m-669 -113 c-8 -51 -24 -172
-35 -268 -12 -96 -22 -188 -24 -205 -2 -16 -5 10 -6 58 -2 130 27 365 61 492
18 67 20 21 4 -77z m425 -306 c-55 -191 -61 -234 -62 -492 -1 -184 -3 -211
-10 -150 -11 89 -3 434 12 539 13 86 38 171 70 232 38 73 34 22 -10 -129z
m-1914 126 c-3 -8 -6 -5 -6 6 -1 11 2 17 5 13 3 -3 4 -12 1 -19z m2490 -220
c-3 -8 -6 -5 -6 6 -1 11 2 17 5 13 3 -3 4 -12 1 -19z m-4547 -32 c0 -3 -4 -8
-10 -11 -5 -3 -10 -1 -10 4 0 6 5 11 10 11 6 0 10 -2 10 -4z m3490 -406 c6
-80 20 -198 31 -263 11 -64 17 -122 13 -129 -4 -7 -3 -8 4 -4 8 5 12 -2 12
-20 0 -15 8 -36 18 -47 9 -11 11 -17 3 -12 -15 8 -11 -10 16 -74 46 -113 158
-169 260 -130 22 8 25 8 16 -2 -7 -7 -36 -14 -65 -17 -151 -12 -245 83 -278
280 -5 35 -17 106 -26 158 -10 59 -17 175 -19 305 -1 116 -1 185 1 155 2 -30
8 -120 14 -200z m-2790 -130 c0 -39 -14 -39 -17 0 -1 17 2 30 7 30 6 0 10 -13
10 -30z m3183 -320 c-19 -66 -55 -113 -78 -104 -24 9 -18 31 15 54 44 31 70
92 72 169 l2 66 3 -63 c3 -40 -2 -84 -14 -122z m-1986 -346 c-3 -3 -12 -4 -19
-1 -8 3 -5 6 6 6 11 1 17 -2 13 -5z m923 -130 c0 -2 -9 -4 -20 -4 -11 0 -20 4
-20 9 0 5 9 7 20 4 11 -3 20 -7 20 -9z m227 -50 c-3 -3 -12 -4 -19 -1 -8 3 -5
6 6 6 11 1 17 -2 13 -5z m123 -34 c0 -13 -11 -13 -30 0 -12 8 -11 10 8 10 12
0 22 -4 22 -10z m87 -26 c-3 -3 -12 -4 -19 -1 -8 3 -5 6 6 6 11 1 17 -2 13 -5z
m56 -1 c-7 -2 -19 -2 -25 0 -7 3 -2 5 12 5 14 0 19 -2 13 -5z m335 0 c-16 -2
-40 -2 -55 0 -16 2 -3 4 27 4 30 0 43 -2 28 -4z"/>
<path d="M3150 5710 c0 -5 5 -10 11 -10 5 0 7 5 4 10 -3 6 -8 10 -11 10 -2 0
-4 -4 -4 -10z"/>
<path d="M3170 5410 c-13 -8 -12 -10 3 -10 9 0 17 5 17 10 0 12 -1 12 -20 0z"/>
<path d="M1627 3637 c-11 -29 -9 -43 4 -30 6 6 9 19 7 29 -3 18 -4 18 -11 1z"/>
<path d="M3815 6720 c-37 -15 -107 -100 -257 -309 -73 -102 -138 -218 -138
-244 0 -13 -9 -32 -20 -42 -11 -10 -20 -26 -20 -37 0 -10 -6 -18 -14 -18 -20
0 -24 -31 -9 -60 7 -14 13 -23 14 -20 6 34 8 43 14 48 3 4 10 1 14 -7 9 -15
81 -5 81 11 0 6 9 8 21 5 15 -4 23 0 26 14 5 18 7 18 18 3 10 -14 15 -15 36
-3 13 7 29 13 34 14 22 1 55 17 55 26 0 6 5 7 10 4 6 -4 44 -3 85 0 64 6 75
10 75 26 0 22 18 25 26 5 10 -26 79 -30 126 -8 24 11 51 23 62 26 15 5 16 9 6
21 -7 8 -8 15 -3 15 5 0 15 -11 21 -25 18 -38 28 -30 46 36 20 68 23 199 7
242 -6 16 -11 37 -11 47 0 11 -11 44 -25 74 -14 30 -25 61 -25 68 0 18 -20 38
-39 38 -8 0 -22 6 -30 13 -43 36 -142 56 -186 37z m138 -564 c6 -15 -1 -26
-15 -26 -4 0 -8 9 -8 20 0 23 15 27 23 6z"/>
<path d="M3093 6478 c3 -30 7 -61 11 -66 4 -6 4 -23 0 -37 -3 -14 -2 -25 2
-25 13 0 34 49 27 66 -3 8 0 14 6 14 21 0 11 37 -20 71 l-30 34 4 -57z"/>
<path d="M1695 6292 c-4 -24 -5 -46 -2 -49 8 -7 20 63 14 79 -2 7 -7 -6 -12
-30z"/>
<path d="M3120 6303 c1 -18 18 -35 24 -24 4 6 4 16 1 21 -7 12 -25 13 -25 3z"/>
<path d="M1678 6114 c-5 -4 -8 -19 -8 -33 1 -23 2 -24 11 -8 11 19 9 53 -3 41z"/>
<path d="M3950 6084 c-103 -17 -105 -18 -96 -33 7 -10 64 -9 175 4 47 6 62 5
57 -4 -11 -17 22 -25 51 -12 l26 12 -20 20 c-27 27 -79 31 -193 13z"/>
<path d="M3605 6034 c-17 -13 -12 -14 42 -14 33 0 89 -3 124 -6 48 -4 60 -3
47 6 -15 9 -56 16 -158 25 -20 1 -44 -3 -55 -11z"/>
<path d="M3645 5993 c-74 -9 -95 -15 -95 -27 0 -8 6 -19 14 -26 8 -6 12 -18 9
-26 -15 -40 68 -70 118 -44 15 8 19 7 19 -4 0 -28 148 27 150 57 0 14 -19 7
-29 -10 -6 -10 -10 -13 -10 -8 0 6 6 18 14 28 23 31 8 45 -53 52 -32 3 -68 8
-82 9 -14 2 -38 1 -55 -1z m138 -57 c24 -18 21 -31 -10 -51 -25 -17 -27 -17
-40 1 -22 30 -17 64 10 64 12 0 30 -7 40 -14z m-163 -6 c0 -5 -7 -10 -15 -10
-8 0 -15 5 -15 10 0 6 7 10 15 10 8 0 15 -4 15 -10z"/>
<path d="M3378 5973 c7 -3 16 -2 19 1 4 3 -2 6 -13 5 -11 0 -14 -3 -6 -6z"/>
<path d="M4971 5839 c-46 -4 -105 -13 -132 -18 -51 -11 -220 -88 -254 -116
-19 -15 -18 -16 15 -9 19 3 60 15 90 26 30 11 66 20 79 20 17 0 20 2 10 8 -11
7 -9 10 6 15 11 4 28 11 37 16 10 5 49 14 89 20 72 11 147 2 176 -23 12 -10
184 -51 189 -45 2 2 -14 20 -35 40 -37 36 -134 79 -170 76 -9 -1 -54 -5 -100
-10z"/>
<path d="M1721 5726 c-7 -8 -8 -17 -3 -20 6 -3 13 1 16 10 9 23 2 28 -13 10z"/>
<path d="M1580 5356 c0 -8 5 -18 10 -21 6 -3 10 1 10 9 0 8 -4 18 -10 21 -5 3
-10 -1 -10 -9z"/>
<path d="M1750 5265 c0 -5 5 -17 10 -25 5 -8 10 -10 10 -5 0 6 -5 17 -10 25
-5 8 -10 11 -10 5z"/>
<path d="M2902 4940 c-25 -23 -28 -32 -9 -24 11 4 42 44 34 44 -2 0 -13 -9
-25 -20z"/>
<path d="M2715 4858 c-11 -6 -39 -30 -62 -53 -61 -61 -59 -92 10 -161 30 -30
52 -56 50 -58 -2 -2 15 -4 39 -4 29 0 37 2 24 7 -21 8 -15 15 24 25 26 6 65
59 76 101 8 30 -32 112 -57 118 -13 3 -17 11 -13 21 5 13 -1 16 -32 16 -22 0
-48 -6 -59 -12z m105 -58 c0 -5 -7 -10 -16 -10 -8 0 -12 5 -9 10 3 6 10 10 16
10 5 0 9 -4 9 -10z"/>
<path d="M695 4380 c3 -5 8 -10 11 -10 2 0 4 5 4 10 0 6 -5 10 -11 10 -5 0 -7
-4 -4 -10z"/>
<path d="M605 4370 c-3 -5 1 -10 9 -10 9 0 16 5 16 10 0 6 -4 10 -9 10 -6 0
-13 -4 -16 -10z"/>
<path d="M532 4341 c-10 -6 -9 -10 7 -14 14 -3 21 0 21 9 0 16 -9 18 -28 5z"/>
<path d="M595 4320 c-3 -5 -1 -10 4 -10 6 0 11 5 11 10 0 6 -2 10 -4 10 -3 0
-8 -4 -11 -10z"/>
<path d="M668 4293 c-3 -13 -2 -26 4 -29 14 -9 16 -2 8 26 -6 25 -6 25 -12 3z"/>
<path d="M710 4295 c0 -8 5 -15 10 -15 6 0 10 7 10 15 0 8 -4 15 -10 15 -5 0
-10 -7 -10 -15z"/>
<path d="M630 4269 c0 -5 5 -7 10 -4 6 3 10 8 10 11 0 2 -4 4 -10 4 -5 0 -10
-5 -10 -11z"/>
<path d="M716 4253 c-14 -4 -17 -11 -12 -34 4 -22 2 -29 -9 -29 -8 0 -15 -5
-15 -11 0 -5 4 -8 9 -4 5 3 12 1 16 -5 11 -18 26 -10 39 21 13 30 11 70 -3 68
-3 -1 -14 -3 -25 -6z"/>
<path d="M621 4206 c-14 -17 -1 -28 19 -16 11 7 12 12 4 20 -8 8 -14 7 -23 -4z"/>
<path d="M555 4150 c3 -42 11 -46 30 -16 19 28 13 46 -14 46 -15 0 -18 -7 -16
-30z"/>
<path d="M640 4120 c0 -5 5 -10 10 -10 6 0 10 5 10 10 0 6 -4 10 -10 10 -5 0
-10 -4 -10 -10z"/>
<path d="M521 4084 c0 -11 3 -14 6 -6 3 7 2 16 -1 19 -3 4 -6 -2 -5 -13z"/>
<path d="M660 4090 c0 -5 5 -10 11 -10 5 0 7 5 4 10 -3 6 -8 10 -11 10 -2 0
-4 -4 -4 -10z"/>
<path d="M192 3850 c10 -16 22 -20 63 -18 l50 1 -45 4 c-25 3 -49 11 -53 19
-4 8 -12 14 -18 14 -5 0 -4 -9 3 -20z"/>
<path d="M174 3755 c-16 -12 -16 -14 -3 -15 9 0 22 7 29 15 16 19 0 19 -26 0z"/>
<path d="M310 3616 c0 -9 5 -16 10 -16 6 0 10 4 10 9 0 6 -4 13 -10 16 -5 3
-10 -1 -10 -9z"/>
<path d="M982 3580 c0 -14 2 -19 5 -12 2 6 2 18 0 25 -3 6 -5 1 -5 -13z"/>
<path d="M1412 3330 c0 -14 2 -19 5 -12 2 6 2 18 0 25 -3 6 -5 1 -5 -13z"/>
<path d="M1443 3324 c-5 -11 -8 -62 -8 -114 0 -91 1 -97 32 -141 48 -69 59
-75 66 -41 3 16 3 39 0 52 -4 13 -1 25 8 30 11 7 9 13 -8 32 -11 13 -23 32
-26 43 -5 20 -5 20 -6 0 0 -12 3 -25 8 -30 12 -14 -7 -77 -22 -73 -37 12 -67
168 -33 168 8 0 18 -4 21 -10 7 -12 45 -14 45 -2 0 4 -7 17 -15 28 -8 12 -11
24 -7 28 3 4 -2 4 -13 0 -14 -6 -17 -4 -12 9 3 8 -1 21 -8 27 -12 10 -16 8
-22 -6z m77 -266 c0 -18 -2 -20 -9 -8 -6 8 -7 18 -5 22 9 14 14 9 14 -14z"/>
<path d="M1720 3072 c0 -10 -5 -23 -11 -29 -6 -6 -8 -17 -4 -23 5 -8 13 2 21
26 16 47 16 44 4 44 -5 0 -10 -8 -10 -18z"/>
<path d="M1630 2964 c0 -8 5 -24 10 -35 9 -16 7 -19 -12 -20 l-23 0 23 -9 c16
-7 22 -18 22 -40 0 -16 4 -30 9 -30 4 0 14 -21 21 -47 6 -27 14 -55 18 -63 3
-8 4 -21 3 -27 -1 -7 3 -13 10 -13 6 0 9 8 6 20 -4 15 0 20 14 20 10 0 19 7
19 15 0 18 -12 19 -28 3 -19 -19 -14 1 6 21 9 10 27 22 40 26 13 4 21 12 18
18 -34 78 -56 135 -56 149 0 14 -5 15 -29 8 -22 -6 -33 -4 -42 6 -15 19 -29
18 -29 -2z"/>
<path d="M1545 2856 c-6 -13 -5 -21 3 -24 7 -2 12 -13 12 -25 1 -27 19 -51 43
-55 21 -4 21 -1 0 43 -9 19 -22 35 -29 35 -7 0 -14 10 -17 23 -3 21 -4 21 -12
3z"/>
<path d="M1491 2838 c0 -7 4 -22 9 -33 7 -17 9 -15 9 13 1 17 -3 32 -9 32 -5
0 -10 -6 -9 -12z"/>
<path d="M1660 2741 c0 -5 5 -13 10 -16 6 -3 10 -2 10 4 0 5 -4 13 -10 16 -5
3 -10 2 -10 -4z"/>
<path d="M1800 2743 c0 -5 5 -15 10 -23 8 -12 10 -11 10 8 0 12 -4 22 -10 22
-5 0 -10 -3 -10 -7z"/>
<path d="M1777 2707 c-11 -29 -9 -43 4 -30 6 6 9 19 7 29 -3 18 -4 18 -11 1z"/>
<path d="M1610 2663 c0 -5 7 -18 15 -29 12 -16 14 -16 15 -3 0 9 -7 22 -15 29
-8 7 -15 8 -15 3z"/>
<path d="M1662 2603 c15 -18 48 -16 48 2 0 11 -9 15 -29 13 -23 -2 -28 -5 -19
-15z"/>
<path d="M1770 2390 c6 -11 13 -20 16 -20 2 0 0 9 -6 20 -6 11 -13 20 -16 20
-2 0 0 -9 6 -20z"/>
<path d="M3350 1485 c0 -8 7 -15 15 -15 8 0 15 4 15 9 0 5 -7 11 -15 15 -9 3
-15 0 -15 -9z"/>
<path d="M4150 1160 c0 -5 24 -10 53 -10 37 0 48 3 37 10 -20 13 -90 13 -90 0z"/>
</g>
</svg>
